<?xml version="1.0" encoding="UTF-8" standalone="no"?>
<!-- Created with Inkscape (http://www.inkscape.org/) -->

<svg
   width="512"
   height="512"
   viewBox="0 0 512 512"
   version="1.1"
   id="svg1"
   xml:space="preserve"
   xmlns="http://www.w3.org/2000/svg"
   xmlns:svg="http://www.w3.org/2000/svg"><defs
     id="defs1" /><g
     id="layer1"><path
       style="fill:#000000;stroke-width:1"
       d="m 94.572304,340.69928 c 0.37476,-81.40458 0.72627,-97.59341 2.33284,-107.43964 1.04037,-6.37619 1.59789,-13.73555 1.23897,-16.35413 -0.85007,-6.20201 0.74166,-11.68171 6.189226,-21.30738 2.44131,-4.31366 6.1327,-11.68935 8.20313,-16.39042 10.23299,-23.23477 33.90874,-50.14911 58.84948,-66.89948 2.75466,-1.85005 5.07399,-3.85304 5.15411,-4.45112 0.0801,-0.59805 0.2111,-2.0372 0.2913,-3.19813 0.23903,-3.46339 4.57763,-7.211278 8.34786,-7.211278 1.89773,0 3.45037,-0.460755 3.45037,-1.023884 0,-1.975374 6.90236,-3.913251 11.11997,-3.122004 2.91258,0.546399 7.21629,-0.10105 14.29385,-2.150279 24.76589,-7.170718 23.71759,-7.104293 112.08651,-7.104293 h 80.98533 v 34.957718 34.9577 l -91.63563,0.29832 -91.63559,0.29838 -0.74182,3.95427 c -1.05509,5.62403 -3.14338,6.9147 -10.10561,6.24569 -5.20208,-0.49983 -6.02572,-0.27639 -6.81159,1.84808 -1.52814,4.1309 -0.0586,6.4281 8.23414,12.87156 4.41357,3.42934 9.56279,8.17068 11.44272,10.53628 6.17715,7.77287 7.20651,21.05625 2.83707,36.6099 -0.96458,3.43355 -1.59167,6.35007 -1.39351,6.48104 22.48706,14.86832 36.41827,35.98767 41.77235,63.3258 1.25722,6.41955 1.79722,7.38014 4.47912,7.96834 15.61325,3.42418 25.55252,9.63248 28.18331,17.6039 2.73496,8.287 -1.13608,23.80537 -7.64176,30.63472 -2.00557,2.10536 -3.40274,5.99629 -5.0386,14.0318 -2.7644,13.57884 -6.19002,20.56489 -15.51592,31.64222 -7.27911,8.64621 -11.43512,15.95014 -11.47284,20.16301 -0.0206,1.98229 1.93721,2.87009 13.08355,5.94187 l 13.10443,3.6114 6.19072,-2.2659 c 7.02498,-2.57126 9.50102,-2.02064 17.73438,3.94359 4.15422,3.0093 5.51509,3.33474 13.94433,3.33474 h 9.34084 l -0.3,-73.70248 -0.30001,-73.70252 -28.54881,-0.26229 c -15.70184,-0.14423 -30.25299,-0.27538 -32.33588,-0.29133 l -3.78706,-0.029 v -35.54029 -35.54033 h 68.78808 68.78805 l -0.35635,110.9907 -0.35635,110.99071 -156.46501,0.29554 -156.465006,0.29555 z m 118.735646,86.80741 c -2.56853,-3.04422 -6.80965,-7.60517 -9.42468,-10.13543 -5.2678,-5.097 -5.14098,-5.13582 -10.27383,3.14391 -2.61632,4.2203 -3.32895,4.04242 -3.4681,-0.86571 -0.15017,-5.29375 -4.52535,-12.55907 -11.90815,-19.77382 -5.54992,-5.42356 -5.91892,-6.14682 -5.94496,-11.65253 -0.0124,-3.22858 -0.50286,-7.91805 -1.08345,-10.4211 -1.2235,-5.2747 -8.77003,-16.65666 -18.22894,-27.49357 -10.96446,-12.56182 -12.9821,-12.4248 -7.70845,0.52354 1.96057,4.81368 6.542,13.22681 10.18093,18.69579 11.72522,17.62195 13.98131,29.19053 8.02404,41.14524 -1.65957,3.33029 -3.5133,6.05506 -4.11942,6.05506 -0.6566,0 -0.61448,-0.911 0.10414,-2.25391 1.67607,-3.13171 1.41792,-17.25941 -0.40877,-22.37202 -0.83202,-2.32866 -3.92149,-7.31015 -6.86546,-11.06992 -2.944,-3.75981 -6.31765,-9.45785 -7.49699,-12.66233 l -2.14426,-5.82627 -6.96143,-0.58262 c -4.37064,-0.36579 -6.39618,-0.94774 -5.44266,-1.56374 0.83532,-0.53967 4.63698,-0.61927 8.44811,-0.17711 3.81116,0.44235 6.92938,0.47372 6.92938,0.0698 0,-0.40396 -0.7598,-2.55288 -1.68843,-4.77542 -1.59542,-3.81845 -1.99645,-4.04034 -7.28285,-4.02957 -3.40595,0.006 -7.8736,1.07742 -11.42069,2.73658 -5.47394,2.56036 -14.02723,10.4979 -16.63416,15.4367 -5.52344,10.46385 -6.63471,26.094 -2.61847,36.82839 2.7118,7.24795 9.59086,15.75259 15.89119,19.64643 10.16637,6.28314 14.27308,6.77828 56.78041,6.84581 l 39.43595,0.0627 z m -85.85435,-5.43866 c -8.07077,-3.60247 -13.45152,-12.92164 -13.32179,-23.0727 l 0.0786,-6.15503 1.47337,5.47297 c 2.19844,8.16635 6.8922,14.41352 13.8105,18.38114 6.44016,3.69342 14.07024,4.65533 18.4279,2.32319 1.23964,-0.66345 2.25389,-0.9363 2.25389,-0.60631 0,0.32996 -2.07655,1.65932 -4.61461,2.95413 -5.28209,2.69471 -12.97605,2.99326 -18.10791,0.70261 z m 4.43075,-12.34525 c -3.04937,-1.22799 -6.1786,-6.82761 -6.1786,-11.0562 0,-6.74933 6.87837,-14.56572 12.8178,-14.56572 3.35363,0 9.32206,3.92403 9.32206,6.1289 0,0.71425 -1.47072,-0.11033 -3.26823,-1.83249 -3.75193,-3.59456 -5.65389,-3.86425 -9.29031,-1.31719 -3.12053,2.1857 -3.51242,8.51252 -0.7851,12.67492 2.2284,3.40097 7.69951,5.78958 10.91991,4.76747 3.5148,-1.11555 2.01735,1.9328 -2.16232,4.40178 -3.63936,2.1498 -7.36957,2.41165 -11.37521,0.79853 z m 106.23165,17.2013 c -3.17662,-3.36469 -8.66275,-9.17345 -12.19139,-12.90839 -3.52863,-3.73496 -9.54394,-9.50296 -13.36736,-12.81785 l -6.95164,-6.02702 6.44801,8.15679 c 7.9667,10.07801 15.40409,20.392 14.70457,20.392 -1.01853,0 -55.04995,-66.692 -57.0112,-70.36999 -1.28456,-2.40897 32.66018,32.12427 46.26278,47.06487 3.79273,4.16578 12.41506,13.21109 19.16071,20.10068 l 12.26483,12.5265 h 6.50287 6.50285 l -10.56139,-11.33762 c -5.80873,-6.2357 -14.01044,-14.88775 -18.22595,-19.22675 -8.58222,-8.83368 -9.35969,-10.80574 -1.02267,-2.59405 l 5.37584,5.29503 2.47886,-12.57788 c 2.8709,-14.56713 3.61416,-20.16709 2.66994,-20.11504 -0.36967,0.0219 -1.71341,0.82405 -2.98605,1.78591 -1.27269,0.96192 -5.67893,2.78823 -9.79172,4.05854 -8.60578,2.65805 -10.30375,2.09006 -15.97363,-5.34358 -3.10891,-4.07599 -6.5463,-6.41287 -11.83078,-8.04299 -3.47627,-1.07236 -3.32916,0.65938 0.43632,5.13438 5.7001,6.7742 1.96133,4.81719 -4.86397,-2.54598 -7.09456,-7.65368 -27.78459,-32.21877 -30.9861,-36.78957 l -1.85617,-2.65007 -3.94191,3.84843 c -2.16803,2.11666 -5.15428,4.62461 -6.63613,5.57326 l -2.69421,1.72481 7.93788,9.48794 c 14.20238,16.9757 21.71717,26.20225 43.99684,54.01855 12.06316,15.06093 22.74966,28.03901 23.74776,28.84009 1.06477,0.85465 5.19573,1.45659 9.99633,1.45659 h 8.18159 z m -19.77234,-35.83165 c -0.3961,-0.64091 -0.16499,-1.16526 0.51384,-1.16526 0.67873,0 1.23401,0.52435 1.23401,1.16526 0,0.6409 -0.23115,1.16523 -0.51382,1.16523 -0.28262,0 -0.83794,-0.52433 -1.23403,-1.16523 z m -6.55756,-6.70023 c -1.44943,-1.84817 -1.40822,-1.88938 0.43995,-0.43995 1.12155,0.87956 2.03921,1.79723 2.03921,2.0392 0,0.95904 -0.9569,0.34177 -2.47916,-1.59925 z m 98.73791,47.68657 c -0.32731,-0.52958 -2.74745,-1.93348 -5.37808,-3.11973 -4.61195,-2.0797 -4.98954,-2.08256 -10.55883,-0.0799 -6.37039,2.29074 -6.65203,2.25589 -23.51559,-2.91141 l -11.36126,-3.48127 0.0256,-4.33578 c 0.0365,-6.213 3.30243,-12.57053 10.90882,-21.23646 3.65435,-4.16336 8.15549,-10.71595 10.00251,-14.56128 3.58779,-7.46953 8.01988,-26.46764 6.30944,-27.04545 -2.23236,-0.75416 -8.83738,-5.15244 -8.39774,-5.59204 0.25702,-0.25702 2.54469,0.25805 5.08373,1.14465 5.93444,2.0722 8.25243,0.73397 12.1906,-7.03792 2.31863,-4.57577 2.91315,-7.49014 2.91315,-14.28074 0,-8.49394 -0.022,-8.55155 -4.80194,-13.01091 -7.27748,-6.78837 -27.23473,-12.42704 -53.15264,-15.01767 -10.78076,-1.0776 -28.92814,0.17176 -34.41374,2.36909 l -3.18274,1.27496 3.0118,0.86619 c 5.76427,1.65778 22.67087,9.72226 29.8416,14.23448 6.7535,4.24967 12.7141,9.8745 15.23218,14.37401 1.00742,1.80014 1.71743,1.77354 9.71046,-0.3639 4.74299,-1.26832 9.67232,-2.71394 10.95413,-3.21246 1.65903,-0.6453 1.17842,0.31398 -1.66824,3.32958 -2.19934,2.32986 -3.65289,4.58199 -3.2301,5.00475 0.42274,0.42279 3.39232,1.02078 6.59899,1.32889 3.2067,0.30813 5.55115,1.0119 5.20997,1.564 -0.89127,1.4421 -12.19013,4.55867 -17.21148,4.74742 -3.95278,0.14854 -4.26536,0.42366 -4.27136,3.75864 -0.01,6.49139 -2.29775,12.07319 -6.43075,15.70199 -3.82795,3.361 -5.47649,8.80397 -3.31972,10.96074 1.04441,1.04441 6.39609,-1.94023 10.71791,-5.9774 5.43369,-5.07582 4.50579,-1.80169 -1.74646,6.16259 -2.99476,3.81484 -6.37828,9.32068 -7.51893,12.23521 l -2.07388,5.29912 -0.0545,-4.95235 c -0.0298,-2.72377 -0.50726,-4.95233 -1.06062,-4.95233 -1.22345,0 -6.6304,11.99561 -7.67825,17.03466 -0.71754,3.45059 -0.0337,4.31899 13.53332,17.18754 l 14.289,13.55332 h 22.54435 c 12.39938,0 22.27655,-0.43329 21.94927,-0.96288 z m -74.4136,-60.25826 c 2.36029,-0.98623 4.65876,-2.38741 5.10769,-3.1138 0.44894,-0.7264 2.56476,-1.88587 4.70187,-2.57665 7.77542,-2.51319 9.89151,-13.87117 4.90583,-26.33163 -4.30589,-10.76144 -23.3107,-23.42496 -51.70889,-34.45522 -8.91138,-3.46132 -12.71604,-4.31975 -19.51179,-4.40225 -8.41568,-0.10229 -8.43092,-0.10823 -4.9081,-1.92993 1.94363,-1.00511 3.16432,-2.19691 2.71272,-2.64856 -0.45162,-0.45161 1.08331,-0.82109 3.41094,-0.82109 3.07205,0 5.36102,-0.99128 8.35101,-3.61651 4.71148,-4.13673 4.69954,-4.1484 2.40327,2.35995 l -1.71568,4.86276 5.30806,2.27529 c 8.88254,3.8075 8.97715,3.71739 8.3195,-7.92071 -0.66962,-11.84965 -4.30313,-24.28393 -8.58228,-29.3694 -2.78882,-3.31436 -2.83334,-3.54911 -0.67298,-3.54911 3.11654,0 9.13374,-7.06505 10.64154,-12.49465 1.64352,-5.91827 1.49642,-16.78167 -0.2583,-19.07308 -0.78074,-1.01955 -2.98802,-2.67359 -4.90512,-3.67565 l -3.4856,-1.82194 5.46917,0.61644 c 4.94194,0.55708 5.8115,0.27414 9.02059,-2.93494 2.85459,-2.85461 3.55492,-4.54067 3.56921,-8.59337 0.0124,-3.68471 0.32193,-4.57148 1.14742,-3.2941 1.66617,2.57823 1.40594,11.76763 -0.39342,13.89134 -1.44904,1.71028 -4.2676,19.04922 -4.2676,26.25331 0,1.74621 1.85422,7.39218 4.12049,12.54655 2.26625,5.15442 3.90913,9.58301 3.65083,9.84133 -0.25828,0.25824 -2.14483,-1.43834 -4.1923,-3.7703 -2.04751,-2.33194 -3.89879,-4.05374 -4.114,-3.82623 -0.87888,0.92916 -4.12606,13.25681 -4.12606,15.66443 0,1.71218 2.75235,5.14077 8.10514,10.09662 l 8.10513,7.50411 11.41293,0.71619 c 6.27709,0.39392 16.07326,1.53854 21.76921,2.54361 5.69597,1.00509 10.64826,1.53547 11.0051,1.17861 2.37305,-2.37305 -6.20171,-26.8261 -13.98469,-39.88079 -4.10262,-6.88144 -17.36054,-21.17519 -21.88817,-23.59836 -2.66728,-1.42745 -2.68025,-1.40021 -1.87846,3.94655 0.64966,4.33215 1.89248,6.46903 6.36182,10.9384 5.49438,5.49437 12.17351,17.35741 13.58126,24.12214 l 0.72747,3.4958 -1.8346,-3.30994 c -3.04795,-5.49898 -8.39193,-11.60833 -13.92278,-15.91683 -5.83445,-4.54499 -7.17765,-8.00035 -8.45578,-21.7523 -0.52658,-5.6659 -0.18511,-10.57259 1.14254,-16.40912 4.44735,-19.55343 1.50662,-29.63306 -11.63944,-39.89533 -4.41323,-3.44513 -8.93,-7.34871 -10.03731,-8.67462 -1.10733,-1.32591 -2.02495,-1.86835 -2.03922,-1.20543 -0.0427,1.99785 -6.54075,5.2036 -10.54734,5.2036 -3.59428,0 -3.72472,0.16005 -3.08506,3.78704 l 0.66793,3.7871 -1.89479,-3.77837 c -1.73671,-3.46311 -1.74095,-4.24099 -0.051,-9.32206 1.51582,-4.55763 1.86359,-4.9737 1.95517,-2.33922 0.1504,4.32213 2.64621,4.11648 7.84321,-0.64621 3.50607,-3.21306 4.19125,-4.61407 4.13819,-8.46135 -0.0352,-2.53589 -0.60967,-6.04676 -1.27696,-7.80192 -1.58154,-4.15976 -0.12284,-4.07977 2.70987,0.14854 2.66301,3.97513 5.78127,6.0641 10.71195,7.17614 5.17593,1.16738 7.76686,-0.58101 6.87546,-4.63963 -0.51337,-2.33729 -0.20603,-3.44522 1.09412,-3.94411 0.99441,-0.3816 1.80804,-1.769 1.80804,-3.08312 0,-1.98657 0.50678,-2.26207 3.00698,-1.63456 2.99488,0.75169 3.00397,0.73175 2.24355,-4.93013 -1.08758,-8.09798 -1.29974,-8.48424 -4.30531,-7.83844 -2.35176,0.50531 -2.46242,0.38308 -0.87303,-0.96436 1.00105,-0.84871 2.18707,-2.51978 2.63562,-3.71353 0.66635,-1.77346 1.13266,-1.9072 2.54949,-0.73134 1.45442,1.20707 2.02248,0.74858 3.5235,-2.84386 3.031,-7.25419 3.33169,-10.85768 1.18005,-14.14151 -1.16289,-1.77476 -2.66188,-2.7555 -3.63868,-2.38068 -0.91366,0.35057 -1.66115,0.17319 -1.66115,-0.39415 0,-0.56736 0.65544,-1.25217 1.45655,-1.52181 2.28386,-0.76869 -1.21995,-4.36498 -4.25267,-4.36498 -1.38094,0 -4.30655,-1.6402 -6.50138,-3.64485 -3.69442,-3.374343 -4.26963,-3.543948 -7.75034,-2.285297 -3.22999,1.167979 -4.53051,0.997272 -9.22958,-1.211544 -3.92708,-1.845953 -5.98517,-2.246053 -7.29701,-1.418572 -3.20146,2.019422 -2.88036,3.893709 1.35065,7.884093 l 4.12498,3.8903 -2.75668,2.58977 -2.75665,2.58973 -3.08794,-6.52735 c -3.36622,-7.115579 -5.45603,-8.037918 -9.95604,-4.39403 -2.01058,1.62806 -2.6621,3.41854 -2.75092,7.55994 -0.1003,4.66729 -0.40954,5.33359 -2.21151,4.76193 -3.1003,-0.9835 -5.47905,1.62609 -5.47905,6.01073 0,4.51831 1.68666,6.1061 3.35159,3.15507 0.88927,-1.57626 1.48911,-1.74227 2.5395,-0.70282 1.05454,1.04359 0.79979,1.72026 -1.09269,2.90213 -3.02978,1.89215 -3.10155,3.43568 -0.31946,6.87144 2.02061,2.49531 2.30691,2.54219 4.81141,0.788 2.48347,-1.73949 2.88841,-1.69849 6.00837,0.60815 1.83996,1.36035 3.34538,2.89915 3.34538,3.41949 0,1.69049 -4.3919,0.99767 -5.08241,-0.80176 -0.83942,-2.18752 -4.68162,-2.27554 -6.44758,-0.14772 -0.73041,0.88012 -1.0007,2.45321 -0.60063,3.4958 0.82778,2.15715 5.13909,2.60691 5.13909,0.53611 0,-0.74774 0.39243,-0.96701 0.87211,-0.48735 0.47965,0.47964 0.0165,1.49778 -1.0293,2.26244 -1.04577,0.7647 -2.09369,2.34371 -2.3287,3.50894 -0.82031,4.06746 -12.98472,8.00038 -27.26837,8.81623 -15.06462,0.86048 -19.03415,2.59204 -24.48709,10.6816 -1.97203,2.92557 -4.71023,9.64513 -6.1545,15.1031 -3.37202,12.7433 -5.09599,15.43033 -4.62585,7.2101 0.19251,-3.36508 0.006,-6.11799 -0.41068,-6.11759 -1.08459,0.001 -8.58752,11.52138 -12.27541,18.84822 -3.3505,6.65653 -4.65193,15.60793 -3.30846,22.75642 l 0.83138,4.42372 2.17275,-4.0784 2.17274,-4.07839 0.0602,4.66101 c 0.0604,4.68692 4.52001,15.92824 6.903,17.40099 0.70329,0.43465 1.87388,1.94091 2.6013,3.34723 1.07344,2.07531 0.60782,1.89844 -2.4719,-0.93883 -2.08694,-1.92269 -4.72744,-4.99544 -5.86774,-6.82834 l -2.07331,-3.3326 -1.5139,2.74995 c -2.13686,3.88147 -1.8958,14.84457 0.41917,19.06354 2.59483,4.72902 8.26133,11.14139 7.37546,8.34625 -0.37325,-1.17757 -0.9647,-4.32379 -1.31439,-6.99154 l -0.63579,-4.85049 2.29691,4.07843 c 1.26333,2.24312 5.06715,7.48676 8.45301,11.65256 5.55431,6.83378 14.99707,22.27423 14.99707,24.52269 0,0.49212 -1.0118,0.63021 -2.24844,0.30676 -3.26961,-0.85502 -6.56013,6.60726 -6.52136,14.78926 0.0292,6.17028 0.15389,6.42307 3.34764,6.78853 2.62243,0.30006 3.19445,0.84926 2.73093,2.62183 -0.48052,1.83752 0.0322,2.24224 2.84132,2.24224 3.11354,0 3.30847,0.22269 2.12701,2.43031 -1.74009,3.2514 -0.78421,3.91592 3.48971,2.42606 5.17926,-1.80551 4.34831,0.11133 -1.39708,3.22269 -24.48015,13.25726 -28.40041,16.39132 -20.50347,16.39132 4.15718,0 27.12133,-11.56406 40.77008,-20.53059 4.76173,-3.12823 11.37272,-6.94826 14.69107,-8.48896 3.31832,-1.54074 5.75917,-3.2449 5.42409,-3.78709 -1.37777,-2.22927 -8.73988,-0.70983 -17.80759,3.67522 -5.30111,2.56359 -10.02107,4.66104 -10.48879,4.66104 -0.46768,0 -0.91859,-4.32603 -1.00198,-9.6134 -0.17032,-10.78537 -3.22258,-23.96454 -8.48393,-36.63011 -1.91293,-4.60494 -4.76924,-13.19744 -6.34736,-19.09436 -1.57811,-5.89692 -4.7009,-13.79636 -6.93948,-17.55431 -2.2386,-3.75794 -3.63971,-6.83262 -3.11357,-6.83262 1.70205,0 7.2743,-6.25939 9.559,-10.73779 2.52779,-4.95488 6.06151,-20.4279 5.18622,-22.70885 -0.31891,-0.83108 -1.77611,-1.55125 -3.23822,-1.6004 -1.8792,-0.063 -0.60904,-1.0936 4.33312,-3.51549 9.25367,-4.53469 11.26528,-4.16147 13.14869,2.43957 3.25809,11.41901 8.70924,18.79897 15.74729,21.31926 2.76607,0.99051 -0.19374,2.1145 -5.91098,2.24471 -3.20435,0.0732 -7.47512,-0.55032 -9.49055,-1.38515 -2.01548,-0.83483 -3.98348,-1.1989 -4.37335,-0.80903 -0.38985,0.38985 0.59551,3.34445 2.18971,6.56576 1.5942,3.22131 2.68204,5.8569 2.4175,5.8569 -1.82787,0 -5.57477,-3.15948 -8.44384,-7.12008 -3.20214,-4.42046 -3.44934,-4.5423 -4.65264,-2.29388 -1.78975,3.34415 -0.40719,7.62218 3.78919,11.72493 3.11189,3.04243 3.2887,3.51533 1.31433,3.51533 -1.25466,0 -4.20822,-1.30943 -6.56341,-2.90984 -2.35518,-1.60039 -4.49352,-2.51802 -4.75183,-2.03918 -1.58072,2.93015 -1.61624,5.03224 -0.13335,7.89055 2.12658,4.09894 1.21984,5.07036 -2.05153,2.19786 l -2.53539,-2.22623 2.47107,3.49574 c 1.35907,1.92266 3.58187,7.9529 4.93961,13.40044 1.35772,5.44758 4.48998,14.6574 6.9606,20.46628 5.47552,12.87389 8.28709,23.04981 9.21245,33.34233 l 0.69952,7.78093 8.15683,-3.49824 c 12.91417,-5.53856 22.6628,-4.41497 20.95872,2.41559 -1.10959,4.44777 -3.99931,7.07802 -7.77633,7.07802 -1.84392,0 -5.20517,0.77407 -7.46945,1.72013 -3.67157,1.5341 -4.07716,2.13277 -3.74964,5.53497 0.339,3.52172 0.90445,4.00207 7.35874,6.25159 3.84535,1.34021 8.82682,3.53726 11.06994,4.88235 7.38711,4.42962 21.38585,9.34102 32.04456,11.2427 16.4662,2.9378 15.73096,2.63941 15.73096,6.38434 0,1.83946 -0.98714,4.56353 -2.19362,6.05348 -1.93609,2.39094 -2.55171,2.54587 -5.24369,1.31935 -2.40861,-1.09746 -3.05001,-1.08191 -3.05001,0.0739 0,2.9391 5.97703,10.139 8.41693,10.139 0.539,0 2.91114,-0.8069 5.27144,-1.79308 z m -11.97336,-26.63066 c -11.2412,-5.47027 -14.91925,-8.53511 -6.37601,-5.31304 6.10689,2.3032 15.14832,7.49605 15.14832,8.7003 0,0.86982 -0.1169,0.82465 -8.77231,-3.38726 z m -42.86799,-71.38052 c -1.1624,-1.1624 -0.97408,-5.06887 0.24433,-5.06887 1.52231,0 2.69835,3.71873 1.54177,4.87529 -0.54441,0.54442 -1.34816,0.63152 -1.7861,0.19354 z m -30.51032,-7.39938 c 3.20343,-1.37654 5.0432,-1.37654 2.91317,0 -0.96135,0.62127 -2.53444,1.10073 -3.4958,1.06552 -1.15249,-0.0421 -0.95404,-0.40519 0.58263,-1.06552 z m 0.40108,-15.44547 c -3.01664,-2.55006 -6.41788,-7.85967 -5.03475,-7.85967 0.38055,0 2.62756,1.54011 4.99334,3.42252 2.36575,1.88236 5.72676,3.77034 7.46886,4.19544 2.78483,0.67956 3.40118,0.28289 5.10176,-3.28326 1.65171,-3.46367 2.97634,-4.37136 9.06771,-6.2136 4.2943,-1.29875 8.87162,-3.72612 11.50069,-6.09891 l 4.36726,-3.94152 -0.74431,3.92048 c -0.85889,4.5241 -2.31702,7.74514 -4.79083,10.58318 -1.36522,1.56623 -2.24893,1.73191 -4.06196,0.76161 -1.33761,-0.71588 -4.48056,-0.91566 -7.43507,-0.47258 -4.09844,0.6146 -5.47063,1.44941 -6.8882,4.19072 -1.47897,2.86003 -2.48422,3.42228 -6.11,3.41745 -2.79544,-0.004 -5.44108,-0.93677 -7.4345,-2.62186 z m 33.97401,-27.99267 c 0,-0.22315 1.64108,-1.94572 3.6468,-3.82808 3.04006,-2.85301 3.42337,-2.99067 2.30381,-0.82734 -1.12407,2.17208 -5.95061,5.94811 -5.95061,4.65542 z m -24.33521,-51.1702 c -0.0744,-1.72464 -0.65954,-3.45977 -1.30045,-3.85587 -1.80579,-1.11604 -1.37499,-2.91312 0.69832,-2.91312 2.15188,0 15.91925,8.24123 15.11349,9.04698 -0.29545,0.29545 -3.01865,-0.30837 -6.05156,-1.34177 -6.87124,-2.34127 -7.13946,-2.33575 -7.79174,0.16024 -0.33528,1.28298 -0.58303,0.87635 -0.66806,-1.0965 z m 37.01506,-30.89369 c -0.076,-0.51058 -0.0688,-1.34285 0.0165,-1.84949 0.0847,-0.50665 -0.39989,-1.95559 -1.07651,-3.21991 -0.75984,-1.41976 -0.8282,-3.01717 -0.17896,-4.17758 0.87372,-1.56123 1.18344,-1.35307 1.83204,1.23116 0.4293,1.71048 1.75932,3.48052 2.95557,3.93346 2.02858,0.76807 1.98702,0.96445 -0.6175,2.9171 -1.53585,1.15151 -2.8546,1.67584 -2.93048,1.16526 z m -6.85356,-9.66777 c -0.92423,-0.57121 -1.41823,-1.30073 -1.0978,-1.62117 0.32048,-0.32045 1.33884,-0.11529 2.26303,0.4559 0.92423,0.57119 1.41822,1.30074 1.0978,1.62119 -0.32045,0.32044 -1.33883,0.11529 -2.26303,-0.45592 z m 10.48729,-1.04058 c 0,-2.95781 2.99874,-3.95106 5.22066,-1.72913 2.27799,2.27799 1.27735,3.93498 -2.37628,3.93498 -2.01395,0 -2.84438,-0.644 -2.84438,-2.20585 z m -2.3305,-3.48291 c 0,-0.6409 0.52439,-1.48932 1.16527,-1.88543 0.64087,-0.39608 1.16523,-0.1958 1.16523,0.44508 0,0.64093 -0.52436,1.48935 -1.16523,1.88547 -0.64088,0.39607 -1.16527,0.19579 -1.16527,-0.44512 z m -20.97462,-1.06976 c 0,-1.73953 2.60685,-3.54961 4.22039,-2.93045 2.15828,0.82822 2.04066,-1.88233 -0.18861,-4.34562 -1.62808,-1.79897 -1.58495,-2.03765 0.46494,-2.57372 1.76064,-0.4604 2.408,0.15183 2.93242,2.77419 0.37012,1.85073 1.07857,3.29879 1.57426,3.21791 2.30032,-0.37546 2.6712,0.27329 1.07105,1.87342 -0.9595,0.95949 -2.517,1.44812 -3.46112,1.08583 -0.94416,-0.36231 -2.06276,-0.0984 -2.48587,0.58596 -0.89305,1.44499 -4.12749,1.68989 -4.12749,0.31248 z m 47.25117,-3.59783 c 0.60884,-0.56887 2.41788,-1.38256 4.02011,-1.80822 2.79965,-0.74378 2.82502,-0.70351 0.65125,1.03429 -2.38367,1.90552 -6.63669,2.61016 -4.67136,0.77393 z m -30.93756,-2.46148 c 0,-0.64091 0.55527,-1.16526 1.23403,-1.16526 0.67869,0 0.90995,0.52435 0.51384,1.16526 -0.3961,0.64089 -0.95141,1.16523 -1.23404,1.16523 -0.28262,0 -0.51383,-0.52434 -0.51383,-1.16523 z m 21.55724,0 c -0.3961,-0.64091 -0.16498,-1.16526 0.51385,-1.16526 0.67872,0 1.23405,0.52435 1.23405,1.16526 0,0.64089 -0.23118,1.16523 -0.51388,1.16523 -0.28261,0 -0.83794,-0.52434 -1.23402,-1.16523 z m 7.04129,0.0805 c -0.3687,-0.59662 -0.13744,-1.4141 0.51385,-1.81667 0.65137,-0.40254 1.18429,0.0854 1.18429,1.08474 0,2.04683 -0.69924,2.34819 -1.69814,0.73193 z m -19.76248,-2.25465 c -0.50192,-0.81217 -0.59792,-1.79139 -0.2133,-2.176 1.04286,-1.04287 2.17995,0.49091 1.61666,2.18072 -0.39471,1.18408 -0.66917,1.18317 -1.40333,-0.004 z m 7.1225,-1.38818 c -0.39875,-1.52482 -0.13026,-2.2317 0.73801,-1.94263 1.67606,0.55801 2.5506,4.33969 1.00361,4.33969 -0.61311,0 -1.39685,-1.0787 -1.74162,-2.39706 z m -25.15231,-2.69198 c -1.00086,-1.20598 -0.92697,-1.92136 0.30384,-2.94292 1.26597,-1.0506 1.78539,-0.93468 2.34493,0.52336 1.54983,4.03884 -0.0739,5.52207 -2.64877,2.41956 z m 33.66416,-3.06774 c 0,-0.6409 0.52434,-1.16528 1.16521,-1.16528 0.64093,0 1.16527,0.52438 1.16527,1.16528 0,0.64088 -0.52434,1.16524 -1.16527,1.16524 -0.64087,0 -1.16521,-0.52436 -1.16521,-1.16524 z m -36.70561,-4.66105 c 0.39611,-0.64087 0.95139,-1.16525 1.23401,-1.16525 0.28264,0 0.51387,0.52438 0.51387,1.16525 0,0.64091 -0.55531,1.16525 -1.23402,1.16525 -0.67872,0 -0.90996,-0.52434 -0.51386,-1.16525 z m -53.21282,225.10637 2.71953,-1.77312 -2.71953,-1.46861 c -2.42825,-1.31133 -3.00198,-1.13412 -5.35703,1.65461 -1.45065,1.71776 -3.19032,4.07264 -3.86591,5.23309 -1.17732,2.02214 -1.06758,2.02707 2.63752,0.11851 2.12627,-1.09523 5.08969,-2.78928 6.58542,-3.76451 z m -7.85175,-31.45536 c -1.95573,-3.83348 -3.05145,-4.6956 -6.47636,-5.09543 -2.2673,-0.26467 -4.12235,-0.2762 -4.12235,-0.0256 0,0.25063 1.07892,1.84953 2.39764,3.55313 1.31873,1.70358 4.07164,5.45707 6.11761,8.34108 l 3.71992,5.24367 0.35874,-3.70135 c 0.20115,-2.07568 -0.6751,-5.72788 -1.9952,-8.31549 z m 6.09345,-4.36099 c 1.96322,-4.11693 1.95349,-4.17463 -1.56401,-9.28714 -1.9467,-2.82946 -5.38852,-6.55483 -7.64847,-8.27854 -4.00846,-3.05741 -4.20621,-3.08774 -8.08246,-1.23927 -4.51021,2.15076 -10.291876,10.06808 -9.67802,13.25296 0.35691,1.85189 1.43967,2.07466 8.54919,1.7591 4.47727,-0.19867 9.05814,-0.62735 10.17968,-0.95248 1.30715,-0.3789 2.03923,0.0448 2.03923,1.18046 0,2.24528 2.45699,7.7075 3.46698,7.7075 0.41931,0 1.65136,-1.86416 2.73788,-4.14259 z"
       id="path1" /></g></svg>
