<svg width="800" height="600" xmlns="http://www.w3.org/2000/svg">
 <g>
  <title>Layer 1</title>
  <path id="svg_2" d="m214,225c5,2 91,84 94,84c3,0 -62,44 37,57" opacity="NaN" stroke-dasharray="2,2" stroke="#ea580c"/>
  <path id="svg_3" d="m583,288" opacity="NaN" stroke-dasharray="2,2" stroke="#ea580c" />
  <path  stroke="#ea580c" stroke-dasharray="2,2" opacity="NaN" d="m457.03423,364.44229c0,0 35.55544,11.85181 71.11088,40.74061c35.55544,28.8888 -15.55551,53.33316 105.92558,94.07377" id="svg_1"/>
  <path  stroke="#ea580c" stroke-dasharray="2,2" opacity="NaN" d="m430,197" id="svg_4"/>
  <path stroke="#ea580c" id="svg_5" d="m200.93875,179.19904l434.02667,278.52402c0,0 150.21097,-263.52657 -255.1322,-112.83794c-405.34317,150.68864 -393.2659,-299.94894 -143.41751,-169.97107c249.84839,129.97788 429.49769,77.84389 267.20946,210.67842c-162.28823,132.83453 -205.31348,213.53508 -249.84839,58.56146c-44.53491,-154.97362 -27.17384,-272.09654 107.94055,-222.10505c135.11439,49.99149 195.50071,-12.85495 147.94648,135.69119c-47.55423,148.54614 -54.34769,223.53338 32.45765,194.25265c86.80533,-29.28073 188.70725,-68.55976 123.03713,-164.25775c-65.67012,-95.698 -71.70875,-202.10845 -171.34618,-101.41131c-99.63743,100.69715 -39.25111,109.98128 -138.1337,142.11867c-98.8826,32.13739 -209.84246,-101.41131 -139.64336,-146.40365c70.1991,-44.99234 -8.30312,-168.54274 122.2823,-65.7031c130.58541,102.83964 40.00594,-44.99234 141.15302,146.40365c101.14708,191.39599 228.71318,122.12207 212.86177,18.56827c-15.85141,-103.5538 -10.56761,-141.4045 -49.81871,-158.54444c-39.25111,-17.13994 4.52897,-219.24839 -120.77264,-6.42748c-125.30161,212.82092 -67.17978,226.39004 -172.85584,222.81921c-105.67606,-3.57082 -227.20353,-60.70395 -113.97918,-127.12122c113.22435,-66.41727 -33.9673,-329.94384 157.00443,-59.27562c190.97173,270.66821 314.76369,309.23308 286.83502,189.2535c-27.92867,-119.97958 73.21841,-244.24414 -110.20503,-206.39344c-183.42344,37.8507 -157.75926,-9.9983 -222.67455,89.98468c-64.91529,99.98298 -111.71469,171.3994 -147.94648,139.97617c-36.23179,-31.42322 -107.94055,-129.97788 8.30312,-192.82432c116.24366,-62.84645 99.63743,-169.97107 197.01037,-67.13143c97.37294,102.83964 157.00443,87.12803 63.40563,134.97702c-93.59879,47.849 -237.0163,16.42578 -127.5661,87.84219c109.4502,71.41642 123.03713,58.56146 161.5334,36.42237c38.49628,-22.13909 68.68944,-72.84474 54.34769,-127.83538c-14.34175,-54.99064 78.50221,-159.97277 -115.48884,-86.41386c-193.99105,73.55891 -211.35212,77.84389 -214.37143,75.7014c-3.01932,-2.14249 -15.09658,-18.56827 18.1159,-66.41727c33.21248,-47.849 52.83803,-212.10675 73.97324,-57.13313c21.13521,154.97362 -253.62254,42.13568 -15.85141,173.54189c237.77113,131.4062 299.66711,56.41897 292.87365,13.56912c-6.79346,-42.84985 177.38481,-122.12207 -30.19316,-78.55806c-207.57797,43.56401 -182.66862,35.70821 -251.35805,69.98809c-68.68944,34.27988 -95.86328,-115.69459 -48.30906,-134.97702c47.55423,-19.28243 48.30906,-97.12632 108.69537,-34.27988c60.38632,62.84645 110.95986,17.8541 62.65081,86.41386c-48.30906,68.55976 -107.18572,104.98213 -141.15302,52.84815c-33.9673,-52.13398 -105.67606,-109.98128 -13.58692,-93.5555c92.08914,16.42578 69.44427,23.56742 116.24366,22.85325c46.7994,-0.71416 51.32837,15.71161 95.10845,-29.28073c43.78008,-44.99234 204.55866,-73.55891 46.7994,-62.13228c-157.75926,11.42663 -273.24809,-79.98638 -166.81721,27.8524c106.43089,107.83879 144.92717,0 191.72656,81.41471c46.7994,81.41471 51.32837,72.84474 47.55423,87.84219c-3.77414,14.99745 77.74739,-17.13994 -38.49628,39.27903c-116.24366,56.41897 -37.74145,72.13058 -186.44276,61.41812c-148.70131,-10.71246 -172.10101,9.9983 -194.74588,-32.85155c-22.64487,-42.84985 -81.52153,-122.83623 -0.75483,-129.97788c80.7667,-7.14164 92.08914,-41.42152 100.39226,12.85495c8.30312,54.27648 27.92867,42.13568 2.26449,65.7031c-25.66419,23.56742 3.77414,-13.56912 -37.74145,30.70906c-41.51559,44.27818 -109.4502,23.56742 -30.94799,60.70395c78.50221,37.13654 56.61217,74.98724 127.5661,34.27988c70.95392,-40.70736 113.22435,-106.41046 92.84397,-109.26711c-20.38038,-2.85666 -49.81871,-52.84815 -78.50221,-0.71416c-28.6835,52.13398 -17.36107,45.70651 9.81278,58.56146c27.17384,12.85495 16.60624,2.85666 30.19316,22.13909c13.58692,19.28243 20.38038,12.85495 76.23773,12.14079c55.85735,-0.71416 61.89598,-39.99319 80.01187,4.99915c18.1159,44.99234 3.01932,89.98468 35.47696,34.27988c32.45765,-55.7048 47.55423,-72.13058 64.16046,-109.26711c16.60624,-37.13654 23.3997,-67.84559 28.6835,-96.41216c5.2838,-28.56657 8.30312,-39.27903 5.2838,-59.27562c-3.01932,-19.9966 12.83209,-5.71331 -17.36107,-64.27477c-30.19316,-58.56146 0,-74.27307 -40.76077,-72.13058c-40.76077,2.14249 138.88853,-12.14079 -107.94055,2.14249c-246.82908,14.28328 -298.91228,-304.23393 -166.06238,-17.8541c132.8499,286.37982 171.34618,159.25861 172.10101,159.25861c0.75483,0 -80.01187,-138.54785 -13.58692,-117.12292c66.42495,21.42492 195.50071,30.70906 135.86922,107.12462c-59.63149,76.41556 51.32837,95.698 -96.61811,76.41556c-147.94648,-19.28243 -267.20946,-10.71246 -200.02968,-87.12803c67.17978,-76.41556 -14.34175,-120.69374 91.33431,-79.27222c105.67606,41.42152 185.68793,62.84645 147.19165,122.83623c-38.49628,59.98979 -135.86922,78.55806 -58.12183,99.98298c77.74739,21.42492 167.57204,-58.56146 138.1337,-106.41046c-29.43833,-47.849 7.54829,-258.52742 -178.13964,-137.11952c-185.68793,121.40791 -166.06238,104.26797 -193.99105,157.11611c-27.92867,52.84815 22.64487,53.56231 -52.0832,58.56146c-74.72807,4.99915 -163.04306,72.84474 -104.92123,-68.55976c58.12183,-141.4045 81.52153,-183.54019 113.22435,-159.97277c31.70282,23.56742 53.59286,-7.85581 92.08914,79.98638c38.49628,87.84219 56.61217,72.84474 33.21248,107.12462c-23.3997,34.27988 -112.46952,-59.27562 -24.90936,42.13568c87.56016,101.41131 120.01781,131.4062 153.23028,102.12547" opacity="NaN" fill="#fff"/>
 </g>

</svg>